<?xml version="1.0" standalone="no"?>
<!DOCTYPE svg PUBLIC "-//W3C//DTD SVG 20010904//EN"
 "http://www.w3.org/TR/2001/REC-SVG-20010904/DTD/svg10.dtd">
<svg version="1.0" xmlns="http://www.w3.org/2000/svg"
 width="512.000000pt" height="512.000000pt" viewBox="0 0 512.000000 512.000000"
 preserveAspectRatio="xMidYMid meet">
<metadata>
Created by potrace 1.14, written by Peter Selinger 2001-2017
</metadata>
<g transform="translate(0.000000,512.000000) scale(0.100000,-0.100000)"
fill="#000000" stroke="none">
<path d="M1320 5087 c-19 -17 -20 -32 -20 -262 0 -232 1 -246 20 -265 18 -18
33 -20 188 -20 231 0 212 -25 212 279 0 218 -2 241 -19 262 -18 22 -23 23
-190 24 -153 1 -174 -1 -191 -18z"/>
<path d="M2019 5087 c-18 -17 -19 -33 -19 -262 0 -232 1 -246 20 -265 18 -18
33 -20 190 -20 157 0 172 2 190 20 19 19 20 33 20 263 0 235 -1 245 -21 263
-19 17 -38 19 -190 19 -151 0 -172 -2 -190 -18z"/>
<path d="M2724 5087 l-24 -18 0 -245 c0 -231 1 -245 20 -264 18 -18 33 -20
190 -20 157 0 172 2 190 20 19 19 20 33 20 263 0 234 -1 245 -21 263 -18 16
-39 19 -186 19 -147 1 -168 -1 -189 -18z"/>
<path d="M3449 5102 c-8 -3 -22 -11 -31 -20 -16 -14 -18 -39 -18 -259 0 -230
1 -244 20 -263 18 -18 33 -20 190 -20 157 0 172 2 190 20 19 19 20 33 20 265
0 233 -1 246 -20 262 -17 15 -44 17 -178 18 -87 1 -165 -1 -173 -3z"/>
<path d="M1120 4261 c-107 -34 -185 -103 -232 -207 l-23 -49 0 -1445 0 -1445
29 -59 c35 -72 73 -115 134 -155 100 -64 28 -61 1532 -61 1519 0 1435 -4 1540
68 69 46 134 140 149 214 8 37 11 474 9 1468 l-3 1415 -29 60 c-39 79 -119
157 -193 187 l-58 23 -1400 2 c-1317 2 -1403 1 -1455 -16z m2350 -826 l0 -651
-142 2 c-79 1 -145 2 -148 3 -3 0 -14 16 -24 34 -79 137 -242 191 -376 123
-65 -33 -104 -73 -136 -141 -19 -40 -23 -63 -21 -125 3 -84 17 -118 74 -181
117 -129 331 -118 433 23 17 23 33 52 36 65 l6 23 198 0 c109 0 210 4 225 10
52 20 52 21 53 745 0 369 1 682 1 696 l1 26 143 -2 c152 -3 180 -9 221 -50 59
-59 56 28 55 -1479 0 -1376 0 -1381 -21 -1424 -14 -29 -35 -51 -67 -70 l-46
-27 -552 0 -553 -1 0 271 0 272 -26 24 -26 24 -504 0 -504 0 0 210 0 210 35
20 c164 88 198 302 71 443 -55 60 -115 86 -206 86 -84 1 -138 -20 -198 -77
-140 -133 -101 -373 75 -458 24 -11 43 -26 44 -32 0 -7 2 -124 3 -262 1 -268
5 -287 52 -305 15 -6 230 -10 518 -10 l493 0 0 -208 0 -208 -736 1 c-515 1
-744 5 -762 13 -15 6 -39 22 -53 37 -58 57 -56 25 -56 921 l0 824 27 1 c39 0
1019 0 1065 0 l37 -1 0 -439 c0 -301 3 -446 10 -460 23 -42 35 -43 493 -43
241 0 438 -3 439 -7 1 -3 2 -29 4 -57 4 -57 23 -94 63 -120 24 -15 53 -18 233
-18 198 0 206 1 237 23 53 37 60 68 61 267 0 199 -7 237 -52 274 -31 25 -34
25 -237 28 -201 3 -206 3 -240 -20 -45 -31 -63 -69 -64 -140 l-1 -57 -385 2
-385 2 -1 438 c-2 476 -2 477 -57 497 -20 6 -240 10 -639 10 l-608 0 2 188 3
187 755 0 755 0 0 -41 c1 -58 22 -101 62 -125 32 -20 48 -22 214 -21 272 1
274 2 273 282 0 207 -5 224 -70 255 -29 14 -64 16 -220 13 l-186 -3 -34 -37
c-33 -36 -37 -52 -36 -121 l1 -27 -757 2 -757 3 -2 190 c-2 178 0 193 20 232
26 49 60 78 107 90 18 5 541 9 1161 9 l1129 -1 0 -650z m-519 147 c1 -10 1
-195 0 -209 -1 -10 -30 -13 -111 -13 l-110 0 0 114 0 114 110 0 c61 0 110 -3
111 -6z m9 -782 c31 -16 61 -59 62 -86 1 -59 -3 -73 -28 -103 -45 -54 -147
-51 -187 4 -78 108 36 245 153 185z m-1212 -393 c48 -45 58 -102 26 -156 -64
-108 -224 -60 -224 67 0 97 128 155 198 89z m1807 -424 l1 -133 -31 -1 c-29
-1 -210 -1 -230 0 -6 1 -9 51 -7 135 l3 134 132 -1 132 -2 0 -132z"/>
<path d="M16 3798 c-13 -18 -16 -55 -16 -190 0 -155 2 -170 20 -188 19 -19 33
-20 263 -20 229 0 245 1 261 19 16 17 18 41 18 173 0 200 0 194 -18 212 -13
14 -51 16 -264 16 -246 0 -249 0 -264 -22z"/>
<path d="M4576 3804 c-18 -18 -18 -10 -18 -213 -1 -209 -26 -193 290 -189 228
3 245 4 258 22 11 15 14 59 14 191 0 154 -2 174 -18 188 -16 15 -50 17 -265
17 -210 0 -248 -2 -261 -16z"/>
<path d="M16 3098 c-23 -33 -23 -343 0 -376 15 -22 18 -22 258 -22 221 0 246
2 266 18 22 18 23 24 23 190 0 152 -2 174 -18 192 -17 19 -30 20 -266 20 -245
0 -248 0 -263 -22z"/>
<path d="M4576 3105 c-17 -13 -18 -30 -19 -189 0 -156 2 -178 18 -196 17 -19
30 -20 262 -20 230 0 244 1 263 20 18 18 20 33 20 194 0 169 -1 175 -22 190
-32 22 -493 23 -522 1z"/>
<path d="M22 2404 c-21 -15 -22 -21 -22 -190 0 -161 2 -176 20 -194 19 -19 33
-20 264 -20 209 0 247 2 260 16 18 17 18 18 18 222 0 123 -2 145 -17 162 -17
19 -32 20 -259 20 -202 0 -245 -3 -264 -16z"/>
<path d="M4580 2402 c-22 -18 -23 -24 -23 -190 0 -152 2 -174 18 -192 17 -19
30 -20 266 -20 245 0 248 0 263 22 13 18 16 55 16 190 0 155 -2 170 -20 188
-19 19 -33 20 -259 20 -216 0 -241 -2 -261 -18z"/>
<path d="M20 1700 c-18 -18 -20 -33 -20 -188 0 -135 3 -172 16 -190 15 -22 18
-22 262 -22 198 1 251 3 266 15 17 13 19 30 19 191 0 172 0 177 -22 196 -21
16 -45 18 -262 18 -226 0 -240 -1 -259 -20z"/>
<path d="M4572 1691 c-14 -24 -17 -51 -15 -172 2 -195 1 -186 19 -203 13 -14
51 -16 264 -16 246 0 249 0 264 22 13 18 16 55 16 190 0 155 -2 170 -20 188
-19 19 -33 20 -265 20 l-245 0 -18 -29z"/>
<path d="M1322 564 c-22 -15 -22 -18 -22 -264 0 -213 2 -251 16 -264 19 -20 1
-18 194 -20 228 -2 210 -26 210 284 0 227 -1 241 -20 260 -18 18 -33 20 -188
20 -135 0 -172 -3 -190 -16z"/>
<path d="M2020 560 c-19 -19 -20 -33 -20 -262 1 -199 3 -247 15 -263 14 -18
29 -19 186 -20 153 -1 174 1 195 18 l24 18 0 245 c0 231 -1 245 -20 264 -18
18 -33 20 -190 20 -157 0 -172 -2 -190 -20z"/>
<path d="M2740 573 c-37 -13 -40 -31 -40 -278 0 -231 1 -243 20 -260 18 -17
40 -19 181 -20 120 -1 168 3 190 13 l29 14 0 249 c0 236 -1 250 -20 269 -18
18 -33 20 -182 19 -90 0 -170 -3 -178 -6z"/>
<path d="M3423 565 c-16 -12 -18 -35 -21 -257 -4 -318 -21 -292 199 -294 156
0 195 5 211 30 4 6 8 122 8 258 l0 248 -24 15 c-32 21 -344 21 -373 0z"/>
</g>
</svg>
